<svg xmlns="http://www.w3.org/2000/svg" viewBox="0 0 267.44 267.44"><g id="Layer_2" data-name="Layer 2"><g id="Layer_1-2" data-name="Layer 1"><path d="M267.44,267.44H0V0H267.44ZM2,265.42H265.42V2H2Z"/><g id="SqK3Rs.tif"><path d="M232.33,126.28c.06-5.84-1.08-12-2.41-18.06-1-4.66-2.33-9.26-3.13-14a28.17,28.17,0,0,1,2.2-17.5,31.24,31.24,0,0,0,2.89-11.45c.49-6.39-.75-12.55-2.36-18.67a192.57,192.57,0,0,0-7.93-22.91c-.37-.91-.39-.92-1.29-.56-1.71.69-1.72.69-1,2.44a183,183,0,0,1,8.13,24.1c.67,2.69.44,3.24-2.12,4.35s-5.34,2.23-7.94,3.51c-4.26,2.11-8.49,4.28-12.12,7.41A28.72,28.72,0,0,0,199,72.64a34.81,34.81,0,0,0-4.32,15,37.54,37.54,0,0,0,3.38,17.45,149.34,149.34,0,0,0,9.27,17.16c1.17,2,2.34,4,3.36,6a7.22,7.22,0,0,1-1.1,8.36,23.56,23.56,0,0,1-7.08,5.54,9.74,9.74,0,0,1-10.47-.63,29.07,29.07,0,0,0-4.17-2.55,5.5,5.5,0,0,0-6.58,1.27,3.69,3.69,0,0,0,.24,5.48,5.78,5.78,0,0,0,3.89,1.38c2.25.1,4.5.24,6.75.15a28.55,28.55,0,0,0,12.25-2.85,22.74,22.74,0,0,0,8-6.89,9.59,9.59,0,0,0,.76-10.64c-1.53-3.05-3.29-6-5-8.93a132.93,132.93,0,0,1-7.51-13.9,37.71,37.71,0,0,1-3.09-13,26.19,26.19,0,0,1,.72-8.38c1.11-4.1,3.78-7,7.15-9.45a35.86,35.86,0,0,1,14.1-6c2.3-.47,4.61-.92,6.91-1.41,1.91-.4,2.74.38,2.4,2.33a20.45,20.45,0,0,1-1.59,5A38,38,0,0,0,223.69,92a53.94,53.94,0,0,0,2.15,10.74,108.12,108.12,0,0,1,3.35,17.77c.2,2.07.37,4.14.38,6.21a45,45,0,0,1-3.92,18.51c-2,4.63-4,9.26-6.23,13.8-1.27,2.59-2.57,5.18-3.88,7.76a21.57,21.57,0,0,1-1.72,2.85c-.12.16-.18.42-.4.4s-.28-.31-.37-.5a34.91,34.91,0,0,0-4-7.1,19.74,19.74,0,0,0-2-2.27,4.85,4.85,0,0,0-5.77-1.13,11.17,11.17,0,0,0-3.11,1.86,4.48,4.48,0,0,1-1.23.82,2.49,2.49,0,0,1-2.6-.22,6.27,6.27,0,0,1-1.38-1.34c-1.53-2.07-3.64-2.42-6-2a26.39,26.39,0,0,0-6.53,2.39c-6.9,3.24-13.61,6.85-20.33,10.43-1.18.62-2.35,1.28-3.53,1.9a1.35,1.35,0,0,0-.72.88,9.4,9.4,0,0,0-.16,4.41,1.36,1.36,0,0,0,.55.85c4.64,3.46,9,7.31,13.39,11a16.86,16.86,0,0,0,10,3.84c2.29.15,4.57.44,6.86.65,5.38.49,10.26-.54,14.08-4.69a19.8,19.8,0,0,0,4-6.9c.26-.74.52-1.49.8-2.23a1.39,1.39,0,0,1,1-.92,1.35,1.35,0,0,1,1.42.39,1.37,1.37,0,0,1,.09,1.54c-.67,1.44-1.3,2.89-2,4.3-4.37,8.59-7.46,17.67-10.45,26.8a37.39,37.39,0,0,1-5.33,10.8,18.52,18.52,0,0,1-13.46,7.76,48,48,0,0,1-13.58-.79c-7.38-1.26-14.76-2.55-22.09-4.13a244.55,244.55,0,0,1-29.61-8.1,147.09,147.09,0,0,1-18-7.62,106.39,106.39,0,0,1-20.06-13,95.44,95.44,0,0,1-21.7-25.92,139,139,0,0,1-13.45-33.43,227.35,227.35,0,0,1-5.51-27.63c-.09-.58-.19-1.17-.27-1.75a.47.47,0,0,0-.62-.46c-.41.07-.83.1-1.25.17-1,.15-1,.16-.82,1.11.65,4.23,1.26,8.46,2,12.67a191.58,191.58,0,0,0,7.12,27.71A123.94,123.94,0,0,0,52.15,178.1a99.74,99.74,0,0,0,8.57,11.18A101.36,101.36,0,0,0,81,206.87a123.67,123.67,0,0,0,25.09,12.56,224.72,224.72,0,0,0,29.3,8.65c1.16.26,2.3.61,3.45.88.59.14.57.32.22.76-3.18,3.89-6.33,7.79-9.5,11.68-.4.48-.42.73.16,1.06,1,.59,1,.63,1.84-.22,3.27-3.44,6.49-6.93,9.59-10.53a4.69,4.69,0,0,1,4.92-1.39c5.53,1.13,11,2.27,16.63,3.12a62.81,62.81,0,0,0,12.4,1c7.19-.35,13.09-3.24,17.31-9.18A40.5,40.5,0,0,0,198.29,213a161.69,161.69,0,0,1,6.78-18.37c3.23-7.53,6.92-14.84,10.64-22.14,2.4-4.72,4.93-9.37,7.19-14.16,2.48-5.23,4.86-10.51,6.91-15.92A41.15,41.15,0,0,0,232.19,131C232.31,129.58,232.3,128.15,232.33,126.28Zm-42.6,46.61a24.74,24.74,0,0,0-6.41,1c-5.48,1.47-11,2.69-16.74,2.18a44.86,44.86,0,0,1-5.42-.82c-.43-.1-.56-.24-.35-.72a3,3,0,0,1,1.43-1.42c3.3-1.75,6.57-3.54,9.88-5.28,4.47-2.34,9-4.56,13.67-6.47a4.63,4.63,0,0,1,5.7,1.33c.31.36.57.75.86,1.12a3.46,3.46,0,0,0,3.45,1.42,5.68,5.68,0,0,0,2.06-.82c1.08-.7,2.16-1.4,3.23-2.11a3.28,3.28,0,0,1,4.84.76,28.12,28.12,0,0,1,2.07,2.89,21.14,21.14,0,0,1,3.11,7.25,2.67,2.67,0,0,1-1.69,3.17,6.3,6.3,0,0,1-2,.44,12.49,12.49,0,0,1-6.29-1.41A27.09,27.09,0,0,0,189.73,172.89ZM160.9,179l.56-.09a19,19,0,0,1,5.16,0A53.07,53.07,0,0,0,184,176.6a22.48,22.48,0,0,1,4.06-.82,24.47,24.47,0,0,1,13.07,2.64,2,2,0,0,1,1.17,2.79,19.56,19.56,0,0,1-2.08,4.5c-2.77,4.29-6.59,6.62-11.82,6.17-2.93-.25-5.84-.68-8.77-.86a14,14,0,0,1-8.67-3.55c-2.4-2.11-4.84-4.15-7.27-6.22C162.8,180.52,161.92,179.81,160.9,179Zm47-111.19a11.56,11.56,0,0,1,3.56-3.87c4.86-3,10.15-5.22,15.38-7.5a1.26,1.26,0,0,1,1.82.84c.26,1,.5,1.91.7,2.88a2.08,2.08,0,0,1-1.22,2.37,5.39,5.39,0,0,1-1,.35c-1.25.28-2.51.53-3.77.78a83.36,83.36,0,0,0-13.91,3.6C209,67.41,208.5,67.56,207.9,67.78ZM190,143.85a10.06,10.06,0,0,1-5.38.36c-.94-.23-1.31-.69-1.26-1.47a1.59,1.59,0,0,1,1.49-1.4,3.91,3.91,0,0,1,2,.24A11.8,11.8,0,0,1,190,143.85Z"/><path d="M140.32,60.06A63.29,63.29,0,0,0,123,63c-6.09,1.85-11.94,4.35-17.89,6.58C102,70.75,98.77,72,95.58,73.2c-.65.24-.85.48-.57,1.18.7,1.73.68,1.77,2.4,1.11q11.2-4.24,22.4-8.52a58.6,58.6,0,0,1,15.1-3.62,57.76,57.76,0,0,1,25.59,3.36,91.19,91.19,0,0,1,9.91,4.38c1.1.55,1.1.54,1.66-.51.74-1.43.74-1.43-.68-2.14a84.09,84.09,0,0,0-18.58-7A52.4,52.4,0,0,0,140.32,60.06Z"/><path d="M165.3,136.76a8.86,8.86,0,0,0,2.24,5.89,10.89,10.89,0,0,0,4.69,3.51c.56.2.84.12,1.05-.48.66-2,.68-1.93-1.12-2.92a8.8,8.8,0,0,1-2.88-2.3,5.3,5.3,0,0,1-.61-5.66,10.38,10.38,0,0,1,3.21-4c.48-.39.53-.68.16-1.15a13.14,13.14,0,0,1-.82-1.23c-.21-.33-.43-.44-.78-.18A12.62,12.62,0,0,0,165.3,136.76Z"/><path d="M97,92.48l-.64-1.93,1.38-.44a83,83,0,0,0,8.44-3c-1.83-.48-2.8-.69-5.8-1.34l-3.92-.85.43-2,3.92.85c3.54.77,4.28.93,6.91,1.63,1.17.31,1.36,1,1.37,1.4,0,1.36-1.59,2.36-10.74,5.27Z"/></g><path d="M145.48,169.57l-1.4-1.47C152.6,160,153,155,153.37,149.78c.46-6.14.94-12.48,12.72-23.74l1.4,1.47c-11.21,10.71-11.67,16.67-12.1,22.42C155,155.33,154.56,160.9,145.48,169.57Z"/><path d="M159.49,208l-2-.11c.43-8.44-4.59-13.73-9.44-18.84-4-4.17-7.71-8.11-7.71-13.33h2c0,4.41,3.31,7.9,7.15,11.94C154.41,192.81,160,198.66,159.49,208Z"/><path d="M121.62,103.41l-.7-1.9c4.6-1.71,15.8-2.09,19.73-2.09v2C135.33,101.45,125.46,102,121.62,103.41Z"/><path d="M97.74,97.84,96.3,96.41c3-3,11.84-5.41,11.93-5.43l.52,2C105.28,93.86,99.57,96,97.74,97.84Z"/></g></g></svg>