<svg xmlns="http://www.w3.org/2000/svg" viewBox="0 0 267.44 267.44"><defs><style>.cls-1{fill:none;}</style></defs><g id="Layer_2" data-name="Layer 2"><g id="Layer_1-2" data-name="Layer 1"><rect class="cls-1" x="1.01" y="1.01" width="265.42" height="265.42"/><path d="M267.44,267.44H0V0H267.44ZM2,265.42H265.42V2H2Z"/><path d="M235.1,127.09c.05-5.84-1.09-12-2.42-18.06-1-4.66-2.33-9.26-3.12-14a28.1,28.1,0,0,1,2.2-17.5,31.44,31.44,0,0,0,2.89-11.45c.49-6.39-.75-12.55-2.36-18.67a191.61,191.61,0,0,0-7.94-22.92c-.36-.91-.39-.92-1.28-.56-1.72.69-1.72.7-1,2.45a182.55,182.55,0,0,1,8.13,24.1c.68,2.68.45,3.24-2.11,4.35s-5.35,2.23-7.94,3.51c-4.26,2.11-8.49,4.28-12.12,7.41a28.79,28.79,0,0,0-6.26,7.67,34.8,34.8,0,0,0-4.31,15,37.42,37.42,0,0,0,3.38,17.45A148.37,148.37,0,0,0,210.1,123c1.17,2,2.33,4,3.36,6a7.21,7.21,0,0,1-1.11,8.35,23.27,23.27,0,0,1-7.07,5.55,9.76,9.76,0,0,1-10.47-.63,29.69,29.69,0,0,0-4.17-2.56,5.52,5.52,0,0,0-6.58,1.28,3.69,3.69,0,0,0,.24,5.48,5.82,5.82,0,0,0,3.89,1.38c2.24.09,4.49.24,6.74.14a28.47,28.47,0,0,0,12.26-2.84,22.71,22.71,0,0,0,7.94-6.89,9.59,9.59,0,0,0,.76-10.64c-1.53-3.05-3.28-6-5-8.94a132.86,132.86,0,0,1-7.52-13.89,38,38,0,0,1-3.08-13,26.19,26.19,0,0,1,.72-8.38c1.1-4.1,3.78-7,7.14-9.45a36,36,0,0,1,14.11-6l6.9-1.41c1.92-.4,2.74.38,2.4,2.32A19.63,19.63,0,0,1,230,74a38.25,38.25,0,0,0-3.53,18.84,54.8,54.8,0,0,0,2.15,10.74A107.1,107.1,0,0,1,232,121.33c.2,2.06.36,4.14.38,6.21a45.14,45.14,0,0,1-3.92,18.51c-2,4.63-4,9.26-6.23,13.79-1.27,2.6-2.58,5.19-3.89,7.77a20.16,20.16,0,0,1-1.72,2.85c-.11.15-.17.42-.4.4s-.28-.31-.36-.51a35.11,35.11,0,0,0-4-7.09,19.85,19.85,0,0,0-2-2.27,4.86,4.86,0,0,0-5.78-1.13,11.09,11.09,0,0,0-3.1,1.85,4.44,4.44,0,0,1-1.23.83,2.49,2.49,0,0,1-2.6-.22A6.32,6.32,0,0,1,195.7,161c-1.52-2.07-3.63-2.42-6-2a26.67,26.67,0,0,0-6.53,2.4c-6.9,3.24-13.61,6.85-20.34,10.43-1.18.62-2.34,1.28-3.52,1.9a1.36,1.36,0,0,0-.73.88,9.27,9.27,0,0,0-.15,4.41,1.37,1.37,0,0,0,.54.85c4.65,3.46,9,7.3,13.4,11a16.82,16.82,0,0,0,10,3.83c2.3.16,4.58.45,6.87.66,5.37.49,10.25-.54,14.08-4.7a19.58,19.58,0,0,0,4-6.89c.27-.74.53-1.49.81-2.23a1.37,1.37,0,1,1,2.5,1c-.67,1.43-1.3,2.89-2,4.3-4.38,8.59-7.47,17.67-10.45,26.8a37.91,37.91,0,0,1-5.33,10.8,18.55,18.55,0,0,1-13.47,7.76,48.64,48.64,0,0,1-13.57-.79c-7.38-1.27-14.77-2.56-22.09-4.13a247.06,247.06,0,0,1-29.62-8.1,147.09,147.09,0,0,1-18-7.62,106.81,106.81,0,0,1-20-13,95.74,95.74,0,0,1-21.7-25.92,138.59,138.59,0,0,1-13.45-33.43,230.09,230.09,0,0,1-5.52-27.63c-.08-.59-.19-1.17-.27-1.76a.46.46,0,0,0-.61-.45l-1.25.16c-1,.16-1,.17-.83,1.12.66,4.23,1.27,8.46,2.05,12.67A190.26,190.26,0,0,0,41.57,151a124,124,0,0,0,13.35,27.92,100.58,100.58,0,0,0,8.56,11.18,102.24,102.24,0,0,0,20.29,17.59,124.53,124.53,0,0,0,25.1,12.56,224.72,224.72,0,0,0,29.3,8.65c1.16.26,2.29.6,3.45.88.59.14.57.32.21.76-3.17,3.88-6.32,7.79-9.5,11.68-.4.48-.42.73.17,1.06,1,.59,1,.63,1.84-.22,3.27-3.45,6.49-6.93,9.59-10.53a4.68,4.68,0,0,1,4.92-1.39c5.52,1.13,11.05,2.27,16.62,3.12a62.92,62.92,0,0,0,12.4,1c7.2-.35,13.1-3.24,17.32-9.18a40.8,40.8,0,0,0,5.87-12.26,163.06,163.06,0,0,1,6.77-18.37c3.24-7.53,6.93-14.84,10.65-22.13,2.4-4.72,4.92-9.38,7.19-14.16,2.47-5.23,4.86-10.51,6.9-15.93A41.54,41.54,0,0,0,235,131.82C235.07,130.39,235.07,129,235.1,127.09ZM192.5,173.7a24.81,24.81,0,0,0-6.42,1c-5.48,1.47-11,2.69-16.74,2.18a43.26,43.26,0,0,1-5.42-.83c-.43-.09-.55-.24-.34-.71a3,3,0,0,1,1.43-1.42c3.29-1.75,6.57-3.54,9.87-5.28,4.47-2.34,9-4.56,13.68-6.47a4.6,4.6,0,0,1,5.69,1.33c.31.35.57.75.87,1.11a3.47,3.47,0,0,0,3.45,1.43,5.54,5.54,0,0,0,2.05-.83c1.09-.69,2.16-1.39,3.23-2.1a3.28,3.28,0,0,1,4.84.76,26.64,26.64,0,0,1,2.08,2.88,21.38,21.38,0,0,1,3.11,7.26,2.68,2.68,0,0,1-1.69,3.17,6.71,6.71,0,0,1-2,.44,12.53,12.53,0,0,1-6.3-1.41A27,27,0,0,0,192.5,173.7Zm-28.84,6.07c.33-.05.45-.06.57-.09a19.81,19.81,0,0,1,5.16,0,53,53,0,0,0,17.34-2.26,21.13,21.13,0,0,1,4.07-.82,24.28,24.28,0,0,1,13.07,2.64A2,2,0,0,1,205,182a18.76,18.76,0,0,1-2.08,4.5c-2.77,4.29-6.58,6.62-11.82,6.17-2.92-.25-5.84-.68-8.77-.86a14,14,0,0,1-8.67-3.55c-2.39-2.11-4.84-4.16-7.26-6.22C165.56,181.33,164.68,180.62,163.66,179.77Zm47-111.18a11.36,11.36,0,0,1,3.56-3.87c4.86-3.06,10.14-5.22,15.38-7.5a1.26,1.26,0,0,1,1.82.83c.26,1,.49,1.92.7,2.88a2.09,2.09,0,0,1-1.22,2.38,5.39,5.39,0,0,1-1,.35q-1.89.41-3.78.78A83.61,83.61,0,0,0,212.17,68Zm-17.93,76.07a10,10,0,0,1-5.38.35c-1-.22-1.32-.68-1.26-1.46a1.57,1.57,0,0,1,1.48-1.4,4,4,0,0,1,2,.24A11.8,11.8,0,0,1,192.74,144.66Z"/><path d="M143.09,60.86a63.55,63.55,0,0,0-17.29,2.91c-6.09,1.86-11.94,4.35-17.89,6.59-3.2,1.19-6.37,2.45-9.57,3.64-.64.24-.85.49-.57,1.19.71,1.72.68,1.76,2.41,1.11q11.2-4.24,22.39-8.52a56.91,56.91,0,0,1,40.7-.26,89.14,89.14,0,0,1,9.9,4.38c1.11.55,1.11.54,1.66-.51.75-1.43.75-1.43-.68-2.14a83.22,83.22,0,0,0-18.58-7A52.74,52.74,0,0,0,143.09,60.86Z"/><path d="M168.07,137.57a8.81,8.81,0,0,0,2.24,5.89A10.83,10.83,0,0,0,175,147c.56.2.84.12,1-.48.67-2,.68-1.94-1.12-2.92a8.77,8.77,0,0,1-2.87-2.3,5.28,5.28,0,0,1-.61-5.66,10.36,10.36,0,0,1,3.2-4c.49-.39.53-.68.17-1.15a14.71,14.71,0,0,1-.83-1.23c-.2-.33-.43-.45-.78-.18A12.58,12.58,0,0,0,168.07,137.57Z"/><path d="M161.11,134.13a2.1,2.1,0,0,0,1.5,2,2.07,2.07,0,0,0,1.94-1.62c0-.64-1-1.91-1.54-1.9S161.12,133.65,161.11,134.13Z"/><path d="M166.27,126.8a2.07,2.07,0,0,0,1.89,1.67,2,2,0,0,0,1.64-1.81A3,3,0,0,0,168,125,3,3,0,0,0,166.27,126.8Z"/><path d="M148.75,162.59c0-1-.48-1.45-1.75-1.46-.77,0-1.33.82-1.37,2,0,.61.8,1.1,1.84,1.12S148.74,163.94,148.75,162.59Z"/><path d="M153.83,159.45c1.29,0,1.4-.08,1.45-1.56,0-1.18-.21-1.41-1.49-1.44s-1.53.48-1.58,2.17C152.19,159.2,152.61,159.41,153.83,159.45Z"/><path d="M159,142.87c0,.37,1.37,1.48,1.89,1.51.36,0,1.52-1.34,1.58-1.84s-1-1.51-1.78-1.57S159.09,142,159,142.87Z"/><path d="M159.28,151.06c0-1.34-.18-1.47-2.11-1.46-.63,0-.89.52-.88,1.77,0,.9.23,1.15,1,1.16C159.27,152.56,159.29,152.55,159.28,151.06Z"/><path d="M90.79,96.55a1.74,1.74,0,1,0,3.45.35c0-.65-1-1.91-1.54-1.9S90.81,96.07,90.79,96.55Z"/><path d="M96.79,94a1.74,1.74,0,1,0,3.45.35c0-.64-1-1.91-1.54-1.9S96.8,93.56,96.79,94Z"/><path d="M90.75,85.22a2,2,0,0,0,1.89,1.67,2,2,0,0,0,1.64-1.81,3.08,3.08,0,0,0-1.84-1.66A3,3,0,0,0,90.75,85.22Z"/><path d="M101.29,90.46c0,.37,1.37,1.49,1.89,1.51.36,0,1.52-1.34,1.58-1.84s-1-1.51-1.78-1.56S101.34,89.62,101.29,90.46Z"/><path d="M96.78,87.05c0,.38,1.37,1.49,1.89,1.51.36,0,1.52-1.33,1.58-1.84s-1-1.51-1.78-1.56S96.83,86.21,96.78,87.05Z"/></g></g></svg>