<svg xmlns="http://www.w3.org/2000/svg" viewBox="0 0 267.44 267.44"><defs><style>.cls-1{fill:none;}</style></defs><g id="Layer_2" data-name="Layer 2"><g id="Layer_1-2" data-name="Layer 1"><rect class="cls-1" x="1.01" y="1.01" width="265.42" height="265.42"/><path d="M267.44,267.44H0V0H267.44ZM2,265.42H265.42V2H2Z"/><path d="M225.41,129c.05-5.85-1.09-12-2.42-18.06-1-4.66-2.33-9.26-3.12-14a28.14,28.14,0,0,1,2.2-17.51A31.34,31.34,0,0,0,225,68c.49-6.39-.75-12.55-2.36-18.67a193.34,193.34,0,0,0-7.93-22.92c-.37-.91-.4-.92-1.29-.56-1.72.69-1.72.69-1,2.45a182.55,182.55,0,0,1,8.13,24.1c.68,2.68.45,3.24-2.11,4.35S213,59,210.45,60.29c-4.26,2.1-8.49,4.27-12.12,7.41a28.63,28.63,0,0,0-6.26,7.67,34.8,34.8,0,0,0-4.31,15,37.44,37.44,0,0,0,3.38,17.45A149.2,149.2,0,0,0,200.41,125c1.17,2,2.33,4,3.36,6a7.23,7.23,0,0,1-1.1,8.35,23.43,23.43,0,0,1-7.08,5.55,9.78,9.78,0,0,1-10.47-.63,29.69,29.69,0,0,0-4.17-2.56,5.52,5.52,0,0,0-6.58,1.28,3.69,3.69,0,0,0,.24,5.48,5.82,5.82,0,0,0,3.89,1.38c2.25.09,4.49.24,6.74.14a28.61,28.61,0,0,0,12.26-2.84,22.81,22.81,0,0,0,7.94-6.89,9.61,9.61,0,0,0,.77-10.64c-1.54-3-3.29-6-5-8.94a131.93,131.93,0,0,1-7.51-13.89,37.77,37.77,0,0,1-3.09-13,26.19,26.19,0,0,1,.72-8.38c1.1-4.1,3.78-7,7.14-9.45a36.13,36.13,0,0,1,14.11-6c2.3-.46,4.6-.92,6.9-1.4,1.92-.4,2.74.38,2.4,2.32a19.63,19.63,0,0,1-1.59,5,38.21,38.21,0,0,0-3.53,18.83,54.06,54.06,0,0,0,2.16,10.75,108.2,108.2,0,0,1,3.35,17.76c.2,2.07.36,4.15.38,6.22A45.14,45.14,0,0,1,218.73,148c-2,4.63-4,9.26-6.23,13.79-1.27,2.6-2.58,5.18-3.89,7.77a20.16,20.16,0,0,1-1.72,2.85c-.11.15-.17.41-.39.4s-.29-.32-.37-.51a35.11,35.11,0,0,0-4-7.09,20.83,20.83,0,0,0-2-2.28,4.87,4.87,0,0,0-5.78-1.12,11.09,11.09,0,0,0-3.1,1.85,4.67,4.67,0,0,1-1.23.83,2.49,2.49,0,0,1-2.6-.23A6.06,6.06,0,0,1,186,162.9c-1.52-2.07-3.63-2.43-6-2a27.06,27.06,0,0,0-6.53,2.39c-6.9,3.24-13.61,6.85-20.34,10.43-1.18.63-7.42.3-7.53.71a7.72,7.72,0,0,0-.3,4,37.18,37.18,0,0,0,4,3.33c4.65,3.46,9,7.3,13.4,11a16.88,16.88,0,0,0,10,3.83c2.3.15,4.58.45,6.87.66,5.37.49,10.25-.54,14.08-4.7a19.67,19.67,0,0,0,4-6.89c.27-.75.53-1.49.81-2.23a1.35,1.35,0,0,1,1-.92,1.33,1.33,0,0,1,1.43.39,1.36,1.36,0,0,1,.08,1.54c-.67,1.43-1.3,2.89-2,4.3-4.38,8.58-7.46,17.67-10.45,26.79a37.83,37.83,0,0,1-5.33,10.81,18.55,18.55,0,0,1-13.47,7.76,48.68,48.68,0,0,1-13.57-.79c-7.38-1.27-14.77-2.56-22.09-4.13a247.06,247.06,0,0,1-29.62-8.1,145.61,145.61,0,0,1-18-7.63,106.58,106.58,0,0,1-20.05-13,95.74,95.74,0,0,1-21.7-25.92A138.75,138.75,0,0,1,31.2,141.09a230.09,230.09,0,0,1-5.52-27.63c-.08-.59-.19-1.17-.27-1.76a.46.46,0,0,0-.61-.45c-.42.06-.83.09-1.25.16-1,.16-1,.17-.83,1.12.66,4.22,1.27,8.46,2.05,12.66a190.42,190.42,0,0,0,7.12,27.72,123.72,123.72,0,0,0,13.34,27.92,100.84,100.84,0,0,0,28.85,28.76,124.05,124.05,0,0,0,25.1,12.57,224.68,224.68,0,0,0,29.3,8.64c1.16.27,2.29.61,3.45.89.59.14.57.32.21.76-3.17,3.88-6.32,7.79-9.5,11.67-.4.49-.42.74.17,1.07,1,.58,1,.63,1.84-.22,3.27-3.45,6.49-6.93,9.59-10.53a4.68,4.68,0,0,1,4.92-1.39c5.52,1.12,11.05,2.26,16.62,3.11a62.17,62.17,0,0,0,12.4,1c7.2-.34,13.1-3.24,17.32-9.17a40.91,40.91,0,0,0,5.87-12.26,162.34,162.34,0,0,1,6.77-18.37c3.24-7.53,6.93-14.84,10.65-22.13,2.4-4.72,4.92-9.38,7.19-14.16,2.47-5.23,4.86-10.51,6.9-15.93a41.54,41.54,0,0,0,2.39-11.36C225.38,132.31,225.38,130.87,225.41,129Zm-42.6,46.61a24.39,24.39,0,0,0-6.42,1c-5.48,1.46-11,2.68-16.74,2.18a45.18,45.18,0,0,1-5.42-.83c-.43-.09-4.07-.42-3.87-.89.31-.69,4.33-.91,5-1.24,3.3-1.75,6.57-3.55,9.87-5.28,4.47-2.35,9-4.56,13.68-6.47a4.6,4.6,0,0,1,5.69,1.33c.31.35.57.75.87,1.11a3.45,3.45,0,0,0,3.45,1.42,5.7,5.7,0,0,0,2.05-.82c1.09-.69,2.16-1.39,3.23-2.1a3.28,3.28,0,0,1,4.84.75,27.79,27.79,0,0,1,2.08,2.89,21.42,21.42,0,0,1,3.11,7.25,2.7,2.7,0,0,1-1.69,3.18,6.71,6.71,0,0,1-2,.44,12.63,12.63,0,0,1-6.3-1.41A27,27,0,0,0,182.81,175.62ZM154,181.69c.33-.05-2.6-2.13-2.48-2.16,1.72-.37,6.48,2,8.21,2.06A53,53,0,0,0,177,179.33a21.13,21.13,0,0,1,4.07-.82,24.28,24.28,0,0,1,13.07,2.64,2,2,0,0,1,1.16,2.79,18.76,18.76,0,0,1-2.08,4.5c-2.77,4.29-6.58,6.62-11.82,6.16-2.92-.25-5.84-.67-8.77-.85a14.06,14.06,0,0,1-8.67-3.56c-2.39-2.1-4.84-4.15-7.26-6.21C155.87,183.25,155,182.54,154,181.69ZM201,70.51a11.39,11.39,0,0,1,3.56-3.88c4.86-3,10.15-5.22,15.38-7.49a1.25,1.25,0,0,1,1.82.83c.26,1,.49,1.91.7,2.88a2.08,2.08,0,0,1-1.22,2.37,4.82,4.82,0,0,1-1.05.36q-1.89.4-3.78.78A83.61,83.61,0,0,0,202.48,70Zm-17.93,76.07a10,10,0,0,1-5.38.35c-.95-.22-1.32-.68-1.26-1.46a1.59,1.59,0,0,1,1.48-1.41,4,4,0,0,1,2,.25A11.8,11.8,0,0,1,183.05,146.58Z"/><path d="M133.4,62.78a63.61,63.61,0,0,0-17.29,2.91C110,67.54,104.17,70,98.22,72.27c-3.2,1.2-6.37,2.46-9.57,3.65-.64.24-.85.49-.56,1.19.7,1.72.67,1.76,2.4,1.11q11.2-4.25,22.39-8.53A58.65,58.65,0,0,1,128,66.08a57.76,57.76,0,0,1,25.59,3.36,89.14,89.14,0,0,1,9.9,4.38c1.11.55,1.11.54,1.66-.52.75-1.42.75-1.42-.68-2.14a83.71,83.71,0,0,0-18.58-7A52.77,52.77,0,0,0,133.4,62.78Z"/><path d="M158.38,139.49a8.81,8.81,0,0,0,2.24,5.89,10.83,10.83,0,0,0,4.69,3.51c.56.2.84.12,1-.49.67-2,.68-1.93-1.12-2.92a8.61,8.61,0,0,1-2.87-2.29,5.28,5.28,0,0,1-.61-5.66,10.36,10.36,0,0,1,3.2-4c.49-.39.53-.68.17-1.15a12.52,12.52,0,0,1-.82-1.23c-.21-.33-.44-.45-.78-.18A12.54,12.54,0,0,0,158.38,139.49Z"/><path d="M152.19,137.19a1.73,1.73,0,1,0,3.44.35c0-.64-1-1.91-1.54-1.9S152.2,136.71,152.19,137.19Z"/><path d="M82,98.41a2.09,2.09,0,0,0,1.5,2,2.07,2.07,0,0,0,1.94-1.62c0-.64-1-1.91-1.54-1.9S82,97.93,82,98.41Z"/><path d="M88,95.9a1.73,1.73,0,1,0,3.44.35c0-.64-1-1.91-1.54-1.9S88,95.42,88,95.9Z"/><path d="M157.35,129.86a2.06,2.06,0,0,0,1.89,1.67,2,2,0,0,0,1.64-1.81,3,3,0,0,0-1.84-1.65A3,3,0,0,0,157.35,129.86Z"/><path d="M81.93,87.08a2.06,2.06,0,0,0,1.89,1.67,2,2,0,0,0,1.64-1.81,3,3,0,0,0-1.83-1.65A3,3,0,0,0,81.93,87.08Z"/><path d="M139.83,165.65c0-1-.48-1.45-1.75-1.46-.77,0-1.34.82-1.37,2,0,.61.8,1.1,1.83,1.12S139.82,167,139.83,165.65Z"/><path d="M144.91,162.51c1.29,0,1.39-.08,1.44-1.56,0-1.18-.2-1.41-1.49-1.45s-1.52.49-1.58,2.18C143.26,162.26,143.69,162.47,144.91,162.51Z"/><path d="M150.11,145.93c0,.37,1.37,1.48,1.89,1.51.36,0,1.53-1.34,1.58-1.85s-1-1.51-1.77-1.56S150.16,145.08,150.11,145.93Z"/><path d="M92.47,92.32c0,.38,1.37,1.49,1.89,1.51.36,0,1.53-1.34,1.58-1.84s-1-1.51-1.78-1.56S92.52,91.48,92.47,92.32Z"/><path d="M88,88.92c0,.37,1.37,1.48,1.89,1.51.36,0,1.53-1.34,1.58-1.84s-1-1.51-1.77-1.57S88,88.08,88,88.92Z"/><path d="M150.36,154.12c0-1.35-.18-1.47-2.11-1.46-.63,0-.89.52-.88,1.76,0,.91.23,1.16,1,1.17C150.35,155.62,150.36,155.61,150.36,154.12Z"/></g></g></svg>