<svg xmlns="http://www.w3.org/2000/svg" viewBox="0 0 267.44 267.44"><g id="Layer_2" data-name="Layer 2"><g id="Layer_1-2" data-name="Layer 1"><path d="M267.44,267.44H0V0H267.44ZM2,265.42H265.42V2H2Z"/><path d="M129,99.84a2,2,0,0,0,1.89,1.67,2,2,0,0,0,1.64-1.81,3,3,0,0,0-1.84-1.65A3,3,0,0,0,129,99.84Z"/><path d="M89.9,80.47a2.08,2.08,0,0,0,1.89,1.68,2,2,0,0,0,1.64-1.82,3.07,3.07,0,0,0-1.83-1.65A3,3,0,0,0,89.9,80.47Z"/><path d="M95.14,82.2A2.07,2.07,0,0,0,97,83.88a2,2,0,0,0,1.64-1.81,3.09,3.09,0,0,0-1.83-1.66A3,3,0,0,0,95.14,82.2Z"/><path d="M140.57,99.61a2,2,0,0,0,1.89,1.67,2,2,0,0,0,1.64-1.81,3.06,3.06,0,0,0-1.84-1.65A3,3,0,0,0,140.57,99.61Z"/><path d="M95.88,96.14a2.06,2.06,0,0,0,1.89,1.67A2,2,0,0,0,99.41,96a3,3,0,0,0-1.83-1.65A3,3,0,0,0,95.88,96.14Z"/><path d="M134.72,99.61a2.06,2.06,0,0,0,1.89,1.67,2,2,0,0,0,1.64-1.81,3,3,0,0,0-1.83-1.65A3,3,0,0,0,134.72,99.61Z"/><path d="M123,101.57a2.07,2.07,0,0,0,1.88,1.68,2,2,0,0,0,1.65-1.82,3.12,3.12,0,0,0-1.84-1.65A3,3,0,0,0,123,101.57Z"/><path d="M88.81,89.84a2.08,2.08,0,0,0,1.89,1.68,2,2,0,0,0,1.64-1.82,3.07,3.07,0,0,0-1.83-1.65A3,3,0,0,0,88.81,89.84Z"/><path d="M94.12,89.17A2.07,2.07,0,0,0,96,90.85,2,2,0,0,0,97.65,89c0-.49-1.36-1.69-1.84-1.65A3,3,0,0,0,94.12,89.17Z"/><path d="M90.58,97.87a2.07,2.07,0,0,0,1.89,1.68,2,2,0,0,0,1.64-1.82c0-.49-1.36-1.69-1.84-1.65A3,3,0,0,0,90.58,97.87Z"/><g id="SqK3Rs.tif"><path d="M235.1,126.28c.05-5.84-1.09-12-2.42-18.06-1-4.66-2.33-9.26-3.13-14a28.18,28.18,0,0,1,2.21-17.5,31.44,31.44,0,0,0,2.89-11.45c.49-6.39-.75-12.55-2.36-18.67a190.85,190.85,0,0,0-7.94-22.91c-.36-.91-.39-.92-1.28-.56-1.72.69-1.72.69-1,2.44a183,183,0,0,1,8.13,24.1c.68,2.69.45,3.24-2.11,4.35s-5.35,2.23-7.94,3.51c-4.26,2.11-8.49,4.28-12.12,7.41a29,29,0,0,0-6.26,7.67,34.8,34.8,0,0,0-4.31,15,37.29,37.29,0,0,0,3.38,17.45,149.34,149.34,0,0,0,9.27,17.16c1.17,2,2.33,4,3.36,6a7.23,7.23,0,0,1-1.11,8.36,23.39,23.39,0,0,1-7.07,5.54,9.74,9.74,0,0,1-10.47-.63,29.63,29.63,0,0,0-4.17-2.55,5.5,5.5,0,0,0-6.58,1.27,3.69,3.69,0,0,0,.24,5.48,5.77,5.77,0,0,0,3.89,1.38c2.24.1,4.49.24,6.74.15a28.62,28.62,0,0,0,12.26-2.85,22.8,22.8,0,0,0,7.94-6.89,9.59,9.59,0,0,0,.76-10.64c-1.53-3.05-3.28-6-5-8.93a133,133,0,0,1-7.52-13.9,37.93,37.93,0,0,1-3.08-13,26.19,26.19,0,0,1,.72-8.38c1.1-4.1,3.78-7,7.14-9.45a36,36,0,0,1,14.11-6c2.3-.47,4.6-.92,6.9-1.41,1.92-.4,2.74.38,2.4,2.33a19.63,19.63,0,0,1-1.59,5A38.19,38.19,0,0,0,226.45,92a54.66,54.66,0,0,0,2.15,10.74A107.1,107.1,0,0,1,232,120.52c.2,2.07.36,4.14.38,6.21a45.31,45.31,0,0,1-3.92,18.51c-2,4.63-4,9.26-6.23,13.8-1.27,2.59-2.58,5.18-3.89,7.76a19.61,19.61,0,0,1-1.72,2.85c-.11.16-.17.42-.4.4s-.28-.31-.36-.5a34.91,34.91,0,0,0-4-7.1,20.73,20.73,0,0,0-2-2.27,4.86,4.86,0,0,0-5.78-1.13,11.32,11.32,0,0,0-3.11,1.86,4.43,4.43,0,0,1-1.22.82,2.49,2.49,0,0,1-2.6-.22,6.32,6.32,0,0,1-1.39-1.34c-1.53-2.07-3.63-2.42-6-2a26.24,26.24,0,0,0-6.53,2.39c-6.9,3.24-13.61,6.85-20.34,10.43-1.18.62-2.34,1.28-3.52,1.9a1.36,1.36,0,0,0-.73.88,9.27,9.27,0,0,0-.15,4.41,1.35,1.35,0,0,0,.54.85c4.65,3.46,9,7.31,13.4,11a16.83,16.83,0,0,0,10,3.84c2.29.15,4.58.44,6.86.65,5.38.49,10.26-.54,14.09-4.69a19.62,19.62,0,0,0,4-6.9c.27-.74.53-1.49.81-2.23a1.37,1.37,0,1,1,2.5,1c-.67,1.44-1.3,2.89-2,4.3-4.37,8.59-7.46,17.67-10.44,26.8a37.91,37.91,0,0,1-5.33,10.8,18.54,18.54,0,0,1-13.47,7.76,47.9,47.9,0,0,1-13.57-.79c-7.39-1.26-14.77-2.55-22.09-4.13a245.2,245.2,0,0,1-29.62-8.1,147.09,147.09,0,0,1-18-7.62,106,106,0,0,1-20-13,95.44,95.44,0,0,1-21.7-25.92,139,139,0,0,1-13.46-33.43,231.24,231.24,0,0,1-5.51-27.63c-.08-.58-.19-1.17-.27-1.75-.05-.38-.24-.51-.61-.46s-.84.1-1.25.17c-1,.15-1,.16-.83,1.11.66,4.23,1.27,8.46,2.05,12.67a190.26,190.26,0,0,0,7.11,27.71A124,124,0,0,0,54.92,178.1a99.66,99.66,0,0,0,8.56,11.18,101.64,101.64,0,0,0,20.29,17.59,124,124,0,0,0,25.1,12.56,224.72,224.72,0,0,0,29.3,8.65c1.15.26,2.29.61,3.45.88.59.14.57.32.21.76-3.17,3.89-6.32,7.79-9.5,11.68-.4.48-.42.73.17,1.06,1,.59,1,.63,1.84-.22,3.26-3.44,6.49-6.93,9.58-10.53a4.7,4.7,0,0,1,4.93-1.39c5.52,1.13,11,2.27,16.62,3.12a62.92,62.92,0,0,0,12.4,1c7.2-.35,13.1-3.24,17.32-9.18A40.74,40.74,0,0,0,201.06,213a159.74,159.74,0,0,1,6.77-18.37c3.24-7.53,6.93-14.84,10.64-22.14,2.41-4.72,4.93-9.37,7.2-14.16,2.47-5.23,4.86-10.51,6.9-15.92A41.53,41.53,0,0,0,235,131C235.07,129.58,235.07,128.15,235.1,126.28Zm-42.6,46.61a24.81,24.81,0,0,0-6.42,1c-5.48,1.47-11,2.69-16.74,2.18a45.16,45.16,0,0,1-5.42-.82c-.43-.1-.55-.24-.34-.72a3,3,0,0,1,1.43-1.42c3.29-1.75,6.57-3.54,9.87-5.28,4.47-2.34,9-4.56,13.68-6.47a4.61,4.61,0,0,1,5.69,1.33c.31.36.57.75.87,1.12a3.45,3.45,0,0,0,3.45,1.42,5.7,5.7,0,0,0,2.05-.82c1.08-.7,2.16-1.4,3.23-2.11a3.28,3.28,0,0,1,4.84.76,28.21,28.21,0,0,1,2.08,2.89,21.33,21.33,0,0,1,3.11,7.25,2.68,2.68,0,0,1-1.7,3.17,6.3,6.3,0,0,1-2,.44,12.53,12.53,0,0,1-6.3-1.41A27,27,0,0,0,192.5,172.89ZM163.66,179l.57-.09a18.9,18.9,0,0,1,5.15,0,53.07,53.07,0,0,0,17.35-2.27,22.76,22.76,0,0,1,4.07-.82,24.47,24.47,0,0,1,13.07,2.64,2,2,0,0,1,1.16,2.79,18.76,18.76,0,0,1-2.08,4.5c-2.77,4.29-6.58,6.62-11.82,6.17-2.92-.25-5.84-.68-8.77-.86a14,14,0,0,1-8.67-3.55c-2.39-2.11-4.84-4.15-7.27-6.22C165.56,180.52,164.68,179.81,163.66,179Zm47-111.19a11.36,11.36,0,0,1,3.56-3.87c4.86-3,10.14-5.22,15.38-7.5a1.26,1.26,0,0,1,1.82.84c.26,1,.49,1.91.7,2.88a2.08,2.08,0,0,1-1.22,2.37,5.39,5.39,0,0,1-1,.35c-1.26.28-2.52.53-3.78.78a83.61,83.61,0,0,0-13.91,3.6C211.72,67.41,211.26,67.56,210.67,67.78Zm-17.93,76.07a10.06,10.06,0,0,1-5.38.36c-1-.23-1.32-.69-1.27-1.47a1.59,1.59,0,0,1,1.49-1.4,4,4,0,0,1,2,.24A11.8,11.8,0,0,1,192.74,143.85Z"/><path d="M143.09,60.06A63.17,63.17,0,0,0,125.8,63c-6.09,1.85-11.94,4.35-17.89,6.58-3.2,1.2-6.37,2.45-9.57,3.65-.64.24-.85.48-.57,1.18.7,1.73.68,1.77,2.41,1.11q11.2-4.24,22.39-8.52a58.57,58.57,0,0,1,15.11-3.62,57.78,57.78,0,0,1,25.59,3.36,91,91,0,0,1,9.9,4.38c1.1.55,1.11.54,1.66-.51.75-1.43.75-1.43-.68-2.14a83.71,83.71,0,0,0-18.58-7A52.25,52.25,0,0,0,143.09,60.06Z"/><path d="M168.07,136.76a8.86,8.86,0,0,0,2.23,5.89,10.92,10.92,0,0,0,4.7,3.51c.56.2.84.12,1-.48.67-2,.68-1.93-1.12-2.92a8.77,8.77,0,0,1-2.87-2.3,5.3,5.3,0,0,1-.62-5.66,10.47,10.47,0,0,1,3.21-4c.49-.39.53-.68.17-1.15a13.23,13.23,0,0,1-.83-1.23c-.2-.33-.43-.44-.78-.18A12.6,12.6,0,0,0,168.07,136.76Z"/><path d="M99.8,92.48l-.64-1.93,1.38-.44a83.14,83.14,0,0,0,8.45-3c-1.84-.48-2.81-.69-5.82-1.34l-3.9-.85.43-2,3.9.85c3.55.77,4.29.93,6.92,1.63,1.17.31,1.36,1,1.37,1.4,0,1.36-1.58,2.36-10.73,5.27Z"/></g><path d="M148.24,169.57l-1.39-1.47c8.51-8.13,8.89-13.08,9.28-18.32.47-6.14,1-12.48,12.72-23.74l1.4,1.47c-11.21,10.71-11.66,16.67-12.1,22.42C157.74,155.33,157.32,160.9,148.24,169.57Z"/><path d="M162.26,208l-2-.11c.44-8.44-4.58-13.73-9.44-18.84-4-4.17-7.7-8.11-7.7-13.33h2c0,4.41,3.32,7.9,7.15,11.94C157.17,192.81,162.73,198.66,162.26,208Z"/></g></g></svg>