<svg xmlns="http://www.w3.org/2000/svg" viewBox="0 0 267.44 267.44"><defs><style>.cls-1{fill:none;}</style></defs><g id="Layer_2" data-name="Layer 2"><g id="Layer_1-2" data-name="Layer 1"><rect class="cls-1" x="1.01" y="1.01" width="265.42" height="265.42"/><path d="M267.44,267.44H0V0H267.44ZM2,265.42H265.42V2H2Z"/><g id="SqK3Rs.tif"><path d="M235.1,127.09c.05-5.84-1.09-12-2.42-18.06-1-4.66-2.33-9.26-3.13-14a28.18,28.18,0,0,1,2.21-17.5,31.44,31.44,0,0,0,2.89-11.45c.49-6.39-.75-12.55-2.36-18.67a190.85,190.85,0,0,0-7.94-22.91c-.36-.92-.39-.92-1.28-.56-1.72.68-1.72.69-1,2.44a183,183,0,0,1,8.13,24.1c.68,2.69.45,3.24-2.11,4.35s-5.35,2.23-7.94,3.51c-4.26,2.11-8.49,4.28-12.12,7.41a28.79,28.79,0,0,0-6.26,7.67,34.8,34.8,0,0,0-4.31,15,37.29,37.29,0,0,0,3.38,17.45A149.34,149.34,0,0,0,210.1,123c1.17,2,2.33,4,3.36,6a7.21,7.21,0,0,1-1.11,8.35,23.27,23.27,0,0,1-7.07,5.55,9.74,9.74,0,0,1-10.47-.63,29.63,29.63,0,0,0-4.17-2.55,5.5,5.5,0,0,0-6.58,1.27,3.69,3.69,0,0,0,.24,5.48,5.77,5.77,0,0,0,3.89,1.38c2.24.1,4.49.24,6.74.14a28.47,28.47,0,0,0,12.26-2.84,22.8,22.8,0,0,0,7.94-6.89,9.59,9.59,0,0,0,.76-10.64c-1.53-3.05-3.28-6-5-8.93a133,133,0,0,1-7.52-13.9,38,38,0,0,1-3.08-13,26.19,26.19,0,0,1,.72-8.38c1.1-4.1,3.78-7,7.14-9.45a36,36,0,0,1,14.11-6l6.9-1.41c1.92-.4,2.74.38,2.4,2.33A19.56,19.56,0,0,1,230,74a38.25,38.25,0,0,0-3.53,18.84,54.8,54.8,0,0,0,2.15,10.74A107.1,107.1,0,0,1,232,121.33c.2,2.07.36,4.14.38,6.21a45.31,45.31,0,0,1-3.92,18.51c-2,4.63-4,9.26-6.23,13.79-1.27,2.6-2.58,5.19-3.89,7.77a19.61,19.61,0,0,1-1.72,2.85c-.11.16-.17.42-.4.4s-.28-.31-.36-.51a35.11,35.11,0,0,0-4-7.09,19.85,19.85,0,0,0-2-2.27,4.86,4.86,0,0,0-5.78-1.13,11.32,11.32,0,0,0-3.11,1.86,4.43,4.43,0,0,1-1.22.82,2.49,2.49,0,0,1-2.6-.22A6.32,6.32,0,0,1,195.7,161c-1.53-2.07-3.63-2.42-6-2a26.67,26.67,0,0,0-6.53,2.4c-6.9,3.24-13.61,6.85-20.34,10.43-1.18.62-2.34,1.28-3.52,1.9a1.36,1.36,0,0,0-.73.88,9.27,9.27,0,0,0-.15,4.41,1.35,1.35,0,0,0,.54.85c4.65,3.46,9,7.3,13.4,11a16.83,16.83,0,0,0,10,3.84c2.29.15,4.58.44,6.86.65,5.38.49,10.26-.54,14.09-4.7a19.58,19.58,0,0,0,4-6.89c.27-.74.53-1.49.81-2.23a1.46,1.46,0,0,1,2.42-.53,1.37,1.37,0,0,1,.08,1.54c-.67,1.44-1.3,2.89-2,4.3-4.37,8.59-7.46,17.67-10.44,26.8a37.91,37.91,0,0,1-5.33,10.8,18.54,18.54,0,0,1-13.47,7.76,48.64,48.64,0,0,1-13.57-.79c-7.39-1.26-14.77-2.56-22.09-4.13a247.06,247.06,0,0,1-29.62-8.1,147.09,147.09,0,0,1-18-7.62,106.48,106.48,0,0,1-20-13,95.44,95.44,0,0,1-21.7-25.92,139,139,0,0,1-13.46-33.43,231.63,231.63,0,0,1-5.51-27.63c-.08-.58-.19-1.17-.27-1.76a.46.46,0,0,0-.61-.45c-.42.06-.84.1-1.25.17-1,.15-1,.16-.83,1.11.66,4.23,1.27,8.46,2.05,12.67A190.26,190.26,0,0,0,41.57,151a124,124,0,0,0,13.35,27.92,99.66,99.66,0,0,0,8.56,11.18,101.64,101.64,0,0,0,20.29,17.59,124,124,0,0,0,25.1,12.56,224.72,224.72,0,0,0,29.3,8.65c1.15.26,2.29.6,3.45.88.59.14.57.32.21.76-3.17,3.88-6.32,7.79-9.5,11.68-.4.48-.42.73.17,1.06,1,.59,1,.63,1.84-.22,3.26-3.45,6.49-6.93,9.58-10.53a4.7,4.7,0,0,1,4.93-1.39c5.52,1.13,11,2.27,16.62,3.12a62.92,62.92,0,0,0,12.4,1c7.2-.35,13.1-3.24,17.32-9.18a40.86,40.86,0,0,0,5.87-12.25,159.74,159.74,0,0,1,6.77-18.37c3.24-7.53,6.93-14.84,10.64-22.14,2.41-4.72,4.93-9.37,7.2-14.16,2.47-5.23,4.86-10.51,6.9-15.92A41.61,41.61,0,0,0,235,131.82C235.07,130.39,235.07,129,235.1,127.09ZM192.5,173.7a24.81,24.81,0,0,0-6.42,1c-5.48,1.47-11,2.69-16.74,2.18a43.26,43.26,0,0,1-5.42-.83c-.43-.09-.55-.24-.34-.71a3,3,0,0,1,1.43-1.42c3.29-1.75,6.57-3.54,9.87-5.28,4.47-2.34,9-4.56,13.68-6.47a4.6,4.6,0,0,1,5.69,1.33c.31.35.57.75.87,1.11a3.46,3.46,0,0,0,3.45,1.43,5.54,5.54,0,0,0,2.05-.83c1.08-.69,2.16-1.39,3.23-2.1a3.28,3.28,0,0,1,4.84.76,27.15,27.15,0,0,1,2.08,2.89,21.33,21.33,0,0,1,3.11,7.25,2.68,2.68,0,0,1-1.7,3.17,6.3,6.3,0,0,1-2,.44,12.53,12.53,0,0,1-6.3-1.41A27,27,0,0,0,192.5,173.7Zm-28.84,6.08.57-.09a18.9,18.9,0,0,1,5.15,0,53.34,53.34,0,0,0,17.35-2.27,22.76,22.76,0,0,1,4.07-.82,24.37,24.37,0,0,1,13.07,2.64A2,2,0,0,1,205,182a18.76,18.76,0,0,1-2.08,4.5c-2.77,4.29-6.58,6.62-11.82,6.17-2.92-.25-5.84-.68-8.77-.86a14,14,0,0,1-8.67-3.55c-2.39-2.11-4.84-4.15-7.27-6.22C165.56,181.33,164.68,180.62,163.66,179.78Zm47-111.19a11.36,11.36,0,0,1,3.56-3.87c4.86-3.06,10.14-5.22,15.38-7.5a1.26,1.26,0,0,1,1.82.84c.26.95.49,1.91.7,2.87a2.09,2.09,0,0,1-1.22,2.38,5.39,5.39,0,0,1-1,.35q-1.89.41-3.78.78A83.61,83.61,0,0,0,212.17,68C211.72,68.22,211.26,68.37,210.67,68.59Zm-17.93,76.07a10.06,10.06,0,0,1-5.38.36c-1-.23-1.32-.69-1.27-1.47a1.59,1.59,0,0,1,1.49-1.4,4,4,0,0,1,2,.24A11.8,11.8,0,0,1,192.74,144.66Z"/><path d="M143.09,60.86a63.2,63.2,0,0,0-17.29,2.92c-6.09,1.85-11.94,4.35-17.89,6.58-3.2,1.2-6.37,2.45-9.57,3.64-.64.25-.85.49-.57,1.19.7,1.73.68,1.76,2.41,1.11q11.2-4.24,22.39-8.52a58.57,58.57,0,0,1,15.11-3.62,57.78,57.78,0,0,1,25.59,3.36,91,91,0,0,1,9.9,4.38c1.1.55,1.11.54,1.66-.51.75-1.43.75-1.43-.68-2.14a83.22,83.22,0,0,0-18.58-7A52.74,52.74,0,0,0,143.09,60.86Z"/><path d="M168.07,137.57a8.86,8.86,0,0,0,2.23,5.89A10.92,10.92,0,0,0,175,147c.56.2.84.12,1-.48.67-2,.68-1.93-1.12-2.92a8.77,8.77,0,0,1-2.87-2.3,5.3,5.3,0,0,1-.62-5.66,10.47,10.47,0,0,1,3.21-4c.49-.39.53-.68.17-1.15a13.23,13.23,0,0,1-.83-1.23c-.2-.33-.43-.44-.78-.18A12.6,12.6,0,0,0,168.07,137.57Z"/></g></g></g></svg>