<svg xmlns="http://www.w3.org/2000/svg" viewBox="0 0 248.97 256.76"><g id="Layer_2" data-name="Layer 2"><g id="Layer_1-2" data-name="Layer 1"><path d="M249,256.76H0V0H249ZM2.85,253.91H246.12V2.85H2.85Z"/><ellipse cx="100.85" cy="107.04" rx="38.55" ry="39.77"/><ellipse cx="193.83" cy="193.59" rx="21.54" ry="22.22"/><ellipse cx="189.09" cy="120.52" rx="4.74" ry="4.89"/><ellipse cx="119.91" cy="171.67" rx="5.96" ry="6.15"/><ellipse cx="53.53" cy="199.75" rx="21.25" ry="21.92"/><ellipse cx="185.04" cy="51.18" rx="15.59" ry="16.08"/><ellipse cx="76.76" cy="38.9" rx="3.68" ry="3.8"/><ellipse cx="37.5" cy="59.22" rx="7.79" ry="8.04"/><ellipse cx="126.86" cy="55.64" rx="3.47" ry="3.58"/><ellipse cx="218.57" cy="93.21" rx="10.41" ry="10.73"/><ellipse cx="166.61" cy="152.65" rx="5.67" ry="5.85"/><ellipse cx="49.41" cy="148.41" rx="4.12" ry="4.25"/><ellipse cx="134.8" cy="209.9" rx="11.41" ry="11.77"/><ellipse cx="93.48" cy="218.74" rx="2.83" ry="2.92"/></g></g></svg>