<svg width="104px" height="auto" xmlns="http://www.w3.org/2000/svg" id="Layer_1" data-name="Layer 1" viewBox="0 0 640.96 180.19"><path d="M98.74,306c0,30.61,8.75,39.35,18.12,39.35,13.12,0,18.11-20,18.11-20l4.38,1.87s-5.63,24.36-27.49,24.36c-20.61,0-35-15-35-44.35,0-29.61,17-46.85,38.1-46.85,17.5,0,25,11.87,25,11.87l-10,20.61h-1.25s-1.25-28.11-15-28.11C106.36,264.77,98.74,273.52,98.74,306Z" transform="translate(-75.09 -260.4)"></path><path d="M172.54,309.75h-3.13v40H148.8V262.27H175c23.74,0,32.49,8.75,32.49,22.49,0,20-25.61,24.36-25.61,24.36v.63l15,5,17.49,35H192.53Zm-3.13-4.37h2.5c8.75,0,13.74-5,13.74-19.37s-5-19.36-13.74-19.36h-2.5Z" transform="translate(-75.09 -260.4)"></path><path d="M222.47,262.27h51.85v11.87L243.08,266v36.23l28.11-3.12v9.37l-28.11-3.12V346l31.24-7.5v11.25H222.47Z" transform="translate(-75.09 -260.4)"></path><path d="M323.4,260.4H324l27.49,89.33H330.27l-7.12-25H298.41l-5.62,25H282.17L308.41,266Zm-23.86,59.34h22.24l-12.12-42.47H309Z" transform="translate(-75.09 -260.4)"></path><path d="M367.72,349.73V266h-1.25l-21.36,12.49h-.5V262.27h66.84v16.24h-.75L389.59,266h-1.25v83.71Z" transform="translate(-75.09 -260.4)"></path><path d="M420,262.27h51.84v11.87L440.64,266v36.23l28.11-3.12v9.37l-28.11-3.12V346l31.23-7.5v11.25H420Z" transform="translate(-75.09 -260.4)"></path><path d="M481.65,349.73V262.27h25.24c26,0,39.73,13.75,39.73,41.86s-17.5,45.6-42.73,45.6ZM524.75,306c0-32.48-6.87-39.35-22.49-39.35v78.7C517.88,345.35,524.75,338.48,524.75,306Z" transform="translate(-75.09 -260.4)"></path><path d="M584.25,349.73V262.27h21.87c27.48,0,36.23,7.5,36.23,19.37,0,18.11-21.24,21.24-21.24,21.24v.62c18.12.63,26.24,8.75,26.24,20.62,0,15-10.62,25.61-36.86,25.61Zm20.62-47.48h2.5c8.74,0,13.12-4.37,13.12-17.49,0-13.74-4.38-18.11-13.12-18.11h-2.5Zm0,3.75v39.35h4.37c10.62,0,16.24-5.62,16.24-19.36,0-14.37-5.62-20-16.24-20Z" transform="translate(-75.09 -260.4)"></path><path d="M716.06,262.27l-23.74,50v37.48H671.7V312.25l-25-50h21.86l20.62,42.48h.62l15.62-42.48Z" transform="translate(-75.09 -260.4)"></path><rect y="172.19" width="640.75" height="8"></rect></svg>