<svg xmlns="http://www.w3.org/2000/svg" viewBox="0 0 266.4 266.4"><defs><style>.cls-1{fill:none;stroke:#000;stroke-miterlimit:10;stroke-width:2px;}</style></defs><g id="Layer_2" data-name="Layer 2"><g id="Layer_1-2" data-name="Layer 1"><rect class="cls-1" x="1" y="1" width="264.4" height="264.4"/><path class="cls-1" d="M102.81,189.73c1.94-1.81,13.29-12.81,13.31-30.59,0-12.76-8.94-18.54-14-31.26-4-10.19-6.56-26.36,2.66-51.21"/><path class="cls-1" d="M130.13,189.73c1.93-1.81,13.29-12.81,13.3-30.59,0-12.76-8.93-18.54-14-31.26-4-10.19-6.56-26.36,2.66-51.21"/><path class="cls-1" d="M154.59,189.73c1.93-1.81,13.29-12.81,13.3-30.59,0-12.76-8.93-18.54-14-31.26-4-10.19-6.56-26.36,2.66-51.21"/></g></g></svg>